<?xml version="1.0" standalone="no"?>
<!DOCTYPE svg PUBLIC "-//W3C//DTD SVG 1.1//EN" "http://www.w3.org/Graphics/SVG/1.1/DTD/svg11.dtd" >
<svg xmlns="http://www.w3.org/2000/svg">
<metadata>Generated by IcoMoon</metadata>
<defs>
<font id="icomoon" horiz-adv-x="1024">
<font-face units-per-em="1024" ascent="960" descent="-64" />
<missing-glyph horiz-adv-x="1024" />
<glyph unicode="&#x20;" horiz-adv-x="512" d="" />
<glyph unicode="&#xe900;" glyph-name="zjcd_driver" d="M512 468.139c92.259 0.024 167.040 74.82 167.040 167.083 0 92.277-74.805 167.083-167.083 167.083s-167.083-74.805-167.083-167.083c0 0 0 0 0 0v0c0.097-92.253 74.869-167.010 167.118-167.083h0.007zM512 749.141c62.88-0.049 113.835-51.034 113.835-113.92 0-62.916-51.004-113.92-113.92-113.92s-113.92 51.004-113.92 113.92v0c0.049 62.935 51.067 113.938 114.003 113.963h0.002zM842.069 214.955l-53.76 164.267c-12.064 30.229-41.091 51.2-75.016 51.2-0.087 0-0.174 0-0.262 0h-402.162c-0.096 0-0.209 0.001-0.322 0.001-33.894 0-62.889-20.978-74.709-50.658l-0.191-0.543-53.803-164.352c-3.608-8.847-5.702-19.112-5.702-29.867 0-44.737 36.238-81.009 80.961-81.067h509.744c44.729 0.057 80.966 36.33 80.966 81.067 0 10.754-2.094 21.020-5.897 30.41l0.195-0.543zM234.155 169.472c-3.058 4.359-4.887 9.774-4.887 15.616 0 3.69 0.73 7.209 2.052 10.422l-0.066-0.182 53.803 164.267c4.2 10.264 14.050 17.393 25.582 17.536h247.229l-199.424-216.064c-0.978-1.128-1.868-2.385-2.628-3.725l-0.060-0.115h-98.816c-9.452 0.037-17.773 4.849-22.679 12.147l-0.062 0.098zM789.803 169.472c-4.997-7.426-13.37-12.246-22.869-12.246-0.045 0-0.090 0-0.135 0h-334.585l189.781 206.976c3.459 3.394 5.966 7.746 7.092 12.626l0.034 0.174h83.925c0.014 0 0.032 0 0.049 0 11.661 0 21.642-7.197 25.741-17.392l0.066-0.187 53.717-164.224c1.276-3.044 2.017-6.581 2.017-10.292 0-5.769-1.792-11.12-4.85-15.526l0.059 0.090z" />
<glyph unicode="&#xe901;" glyph-name="zjcd_carCaptain" d="M538.581 423.637c90.486 0 163.84 73.354 163.84 163.84s-73.354 163.84-163.84 163.84c-90.471 0-163.816-73.329-163.84-163.795v-0.002c0.097-90.456 73.388-163.761 163.829-163.883h0.011zM426.453 587.52c0.049 61.89 50.231 112.043 112.128 112.043 61.927 0 112.128-50.201 112.128-112.128s-50.201-112.128-112.128-112.128v0c-0.013 0-0.028 0-0.043 0-61.982 0-112.232 50.234-112.256 112.211v0.002zM524.416 382.293h-102.4c-0.27 0.001-0.591 0.002-0.911 0.002-105.135 0-195.111-64.902-232.049-156.827l-0.597-1.682-15.957-40.235c-1.252-3.056-1.979-6.603-1.979-10.32 0-11.714 7.218-21.743 17.45-25.88l0.187-0.067c3.017-1.295 6.528-2.048 10.215-2.048 0.039 0 0.078 0 0.116 0h-0.006c0.030 0 0.066 0 0.102 0 11.693 0 21.701 7.214 25.816 17.435l0.066 0.187 16 40.277c29.121 72.81 99.069 123.308 180.811 123.308 0.259 0 0.517-0.001 0.776-0.002h102.36c14.958 0.603 26.855 12.875 26.855 27.925s-11.897 27.322-26.8 27.924l-0.054 0.002zM853.845 314.155l-34.133 55.467c-5.069 7.983-13.843 13.216-23.843 13.269h-139.187c-10.005-0.017-18.78-5.264-23.74-13.153l-0.068-0.117-34.133-55.467c-2.589-4.166-4.124-9.221-4.124-14.635 0-6.738 2.377-12.921 6.339-17.756l-0.039 0.049 103.851-126.848c5.172-6.265 12.939-10.228 21.632-10.228s16.46 3.963 21.594 10.181l0.038 0.047 103.851 126.848c3.843 4.763 6.169 10.89 6.169 17.56 0 5.473-1.566 10.581-4.275 14.899l0.069-0.117zM795.819 301.781l-69.589-84.907-69.547 84.907 15.531 25.259h108.203z" />
<glyph unicode="&#xe902;" glyph-name="zjcd_device" d="M685.227 110.805h-346.453c-56.789 0.097-102.797 46.12-102.869 102.905v468.572c0.073 56.792 46.080 102.815 102.86 102.912h263.689c102.484-0.146 185.521-83.198 185.643-185.674v-385.804c-0.073-56.792-46.080-102.815-102.86-102.912h-0.009zM338.773 732.672c-27.81-0.048-50.341-22.58-50.389-50.385v-468.57c0.048-27.81 22.58-50.341 50.385-50.389h346.458c27.81 0.048 50.341 22.58 50.389 50.385v385.797c-0.097 73.481-59.639 133.023-133.111 133.12h-0.009zM616.064 486.827h-208.043c-14.516 0-26.283 11.767-26.283 26.283s11.767 26.283 26.283 26.283h208.043c14.516 0 26.283-11.767 26.283-26.283s-11.767-26.283-26.283-26.283v0z" />
<glyph unicode="&#xe903;" glyph-name="zjcd_set" d="M512.037 107.739c-12.534 0-24.278 3.381-34.371 9.281l0.323-0.174-235.849 136.192c-20.392 11.99-33.878 33.798-33.938 58.762v272.393c0.033 25.009 13.543 46.855 33.655 58.67l0.32 0.174 235.849 136.155c9.752 5.699 21.47 9.064 33.975 9.064s24.223-3.365 34.299-9.239l-0.324 0.175 235.922-136.229c20.418-11.98 33.915-33.814 33.938-58.804v-272.387c-0.060-24.963-13.529-46.767-33.584-58.597l-0.318-0.174-235.922-136.155c-9.728-5.725-21.429-9.106-33.921-9.106-0.019 0-0.038 0-0.057 0h0.003zM512.037 729.819c-1.751-0.004-3.391-0.479-4.799-1.304l0.045 0.024-235.849-136.192c-2.839-1.653-4.718-4.682-4.718-8.15 0-0.002 0-0.004 0-0.006v0-272.384c0.022-3.472 1.909-6.499 4.709-8.131l0.045-0.024 235.849-136.155c1.348-0.768 2.962-1.221 4.681-1.221s3.333 0.453 4.729 1.246l-0.047-0.025 235.922 136.155c2.825 1.67 4.696 4.692 4.718 8.152v272.387c0 0.010 0 0.021 0 0.032 0 3.441-1.864 6.447-4.637 8.063l-0.044 0.024-235.886 136.265c-1.357 0.779-2.983 1.239-4.717 1.243h-0.001zM512.037 342.053c-58.574 0-106.057 47.483-106.057 106.057s47.483 106.057 106.057 106.057c58.574 0 106.057-47.483 106.057-106.057v0c0-58.574-47.483-106.057-106.057-106.057v0zM512.037 495.653c-26.257 0-47.543-21.286-47.543-47.543s21.286-47.543 47.543-47.543c26.257 0 47.543 21.286 47.543 47.543v0c-0.083 26.194-21.337 47.397-47.543 47.397 0 0 0 0 0 0v0z" />
<glyph unicode="&#xe904;" glyph-name="zjcd_map" d="M784.683 656.128v-416.299h-545.408v416.299h545.408zM812.843 722.816h-601.6c-21.208 0-38.4-17.192-38.4-38.4v0-472.704c0-21.208 17.192-38.4 38.4-38.4v0h601.6c21.208 0 38.4 17.192 38.4 38.4v0 472.619c0 21.208-17.192 38.4-38.4 38.4v0zM797.099 285.696c-4.624 0.002-9.023 0.959-13.013 2.685l0.213-0.082-576.256 239.701c-12.384 5.047-20.954 16.994-20.954 30.942 0 18.404 14.919 33.323 33.323 33.323 4.784 0 9.332-1.008 13.445-2.824l-0.213 0.084 576.256-239.701c11.954-5.251 20.151-16.987 20.151-30.637 0-18.282-14.703-33.129-32.929-33.363h-0.022zM566.187 414.677c-18.402 0.002-33.319 14.92-33.319 33.323 0 6.635 1.939 12.816 5.281 18.009l-0.079-0.132 139.904 219.52c6.011 9.337 16.352 15.432 28.117 15.432 18.408 0 33.331-14.923 33.331-33.331 0-6.643-1.944-12.832-5.293-18.030l0.079 0.132-139.861-219.52c-6.012-9.32-16.343-15.403-28.094-15.403-0.023 0-0.046 0-0.070 0h0.004z" />
<glyph unicode="&#xe905;" glyph-name="zjcd_warn" d="M798.336 100.309h-551.125c-0.358-0.014-0.779-0.021-1.202-0.021-18.71 0-33.877 15.167-33.877 33.877s15.167 33.877 33.877 33.877c0.423 0 0.844-0.008 1.263-0.023l-0.061 0.002h551.125c0.358 0.014 0.779 0.021 1.202 0.021 18.71 0 33.877-15.167 33.877-33.877s-15.167-33.877-33.877-33.877c-0.423 0-0.844 0.008-1.263 0.023l0.061-0.002zM522.411 653.909c-0.013 0-0.028 0-0.043 0-18.686 0-33.835 15.148-33.835 33.835 0 0.015 0 0.030 0 0.045v-0.002 67.712c0.666 18.186 15.569 32.675 33.856 32.675s33.19-14.49 33.854-32.615l0.002-0.061v-67.712c0-0.013 0-0.028 0-0.043 0-18.686-15.148-33.835-33.835-33.835v0zM727.723 586.923c-18.694 0.021-33.84 15.181-33.84 33.877 0 9.346 3.784 17.807 9.904 23.936v0l47.872 47.872c6.126 6.126 14.588 9.915 23.936 9.915 18.695 0 33.851-15.155 33.851-33.851 0-9.348-3.789-17.81-9.915-23.936l-47.872-47.872c-6.093-6.14-14.537-9.941-23.867-9.941-0.024 0-0.048 0-0.072 0h0.004zM324.907 586.923c-0.005 0-0.010 0-0.015 0-9.348 0-17.808 3.8-23.919 9.94l-47.873 47.873c-6.126 6.126-9.915 14.588-9.915 23.936 0 18.695 15.155 33.851 33.851 33.851 9.348 0 17.81-3.789 23.936-9.915l47.872-47.872c6.119-6.129 9.904-14.59 9.904-23.936 0-18.697-15.146-33.856-33.837-33.877h-0.002zM522.752 249.387c-31.482 0-57.003 25.521-57.003 57.003s25.521 57.003 57.003 57.003c31.482 0 57.003-25.521 57.003-57.003v0c0-31.482-25.521-57.003-57.003-57.003v0zM522.752 317.099c-5.938 0-10.752-4.814-10.752-10.752s4.814-10.752 10.752-10.752c5.938 0 10.752 4.814 10.752 10.752v0c0 5.938-4.814 10.752-10.752 10.752v0zM522.453 553.045c96.273-0.121 174.282-78.145 174.379-174.412v-210.441h-348.8v210.432c0.121 96.281 78.14 174.3 174.41 174.421h0.012zM522.453 620.757c-133.727 0-242.133-108.407-242.133-242.133v0-278.144h484.224v278.144c0 0.013 0 0.028 0 0.043 0 133.703-108.388 242.091-242.091 242.091v0z" />
<glyph unicode="&#xe906;" glyph-name="zjcd_vehicle" d="M790.059 553.003h-24.917l-61.867 160.768c-4.012 10.222-13.779 17.335-25.212 17.365h-327.556c-11.445-0.005-21.224-7.128-25.153-17.182l-0.063-0.184-61.867-160.768h-24.875c-37.481-0.024-67.858-30.402-67.883-67.88v-211.074c0-37.499 30.387-67.901 67.88-67.925h551.554c37.486 0.049 67.858 30.436 67.883 67.923v211.117c-0.073 37.468-30.451 67.816-67.923 67.84h-0.002zM369.067 676.992h290.389l46.933-121.6h-384zM803.797 274.048c0-0.025 0-0.055 0-0.085 0-7.588-6.151-13.739-13.739-13.739 0 0 0 0 0 0h-551.509c0 0 0 0 0 0-7.611 0-13.781 6.17-13.781 13.781 0 0.015 0 0.030 0 0.045v-0.002 211.115c0 0 0 0 0 0 0 7.588 6.151 13.739 13.739 13.739 0.015 0 0.030 0 0.045 0h551.55c0.013 0 0.028 0 0.043 0 7.564 0 13.696-6.132 13.696-13.696 0-0.015 0-0.030 0-0.045v0.002zM596.096 406.613h-163.627c-14.951 0-27.072-12.121-27.072-27.072s12.121-27.072 27.072-27.072v0h163.627c14.951 0 27.072 12.121 27.072 27.072s-12.121 27.072-27.072 27.072v0zM373.419 173.099h-124.288c-14.951 0-27.072-12.121-27.072-27.072s12.121-27.072 27.072-27.072v0h124.288c14.951 0 27.072 12.121 27.072 27.072s-12.121 27.072-27.072 27.072v0zM763.947 173.099h-124.288c-14.951 0-27.072-12.121-27.072-27.072s12.121-27.072 27.072-27.072v0h124.288c14.951 0 27.072 12.121 27.072 27.072s-12.121 27.072-27.072 27.072v0z" />
<glyph unicode="&#xe907;" glyph-name="zjcd_workbench" d="M746.923 658.773v-354.773h-482.987v354.773h482.987zM765.013 720.085h-519.125c-23.861-0.024-43.197-19.361-43.221-43.219v-390.957c0.024-23.861 19.361-43.197 43.219-43.221h519.128c23.879 0 43.24 19.346 43.264 43.219v390.957c-0.024 23.876-19.385 43.221-43.264 43.221v0zM662.443 145.536h-313.984c0 0 0 0 0 0-16.928 0-30.653 13.71-30.677 30.632v0.002c0 16.943 13.735 30.677 30.677 30.677v0h313.984c16.943 0 30.677-13.735 30.677-30.677v0c-0.024-16.924-13.75-30.635-30.677-30.635 0 0 0 0 0 0v0zM629.888 556.203l-74.709-74.795c-2.307-2.263-5.47-3.659-8.96-3.659s-6.653 1.396-8.962 3.661l0.002-0.002-31.872 31.957c-12.182 11.631-28.722 18.79-46.933 18.79s-34.752-7.158-46.96-18.815l0.026 0.025-68.267-68.608 38.016-38.101 68.48 68.608c2.307 2.263 5.47 3.659 8.96 3.659s6.653-1.396 8.962-3.661l31.913-31.913c12.182-11.631 28.722-18.79 46.933-18.79s34.752 7.158 46.96 18.815l-0.026-0.025 74.667 74.795z" />
<glyph unicode="&#xe908;" glyph-name="zjcd_enterprise" d="M269.184 378.752v224.085l202.368 119.467c5.12 2.996 8.511 8.459 8.533 14.717v28.888c0 0.007 0 0.016 0 0.025 0 9.426-7.641 17.067-17.067 17.067-3.142 0-6.085-0.849-8.614-2.33l0.081 0.044-239.659-138.624c-5.137-3.006-8.533-8.496-8.533-14.78 0-0.009 0-0.018 0-0.027v0.001-277.333c0-0.004 0-0.009 0-0.014 0-9.426 7.641-17.067 17.067-17.067 4.737 0 9.024 1.93 12.116 5.047l28.886 28.886c2.982 3.070 4.821 7.264 4.821 11.888 0 0.021 0 0.041 0 0.062v-0.003zM393.856 448.043c0-65.249 52.895-118.144 118.144-118.144s118.144 52.895 118.144 118.144v0c0.004 0.37 0.007 0.807 0.007 1.244 0 64.566-52.341 116.907-116.907 116.907-0.437 0-0.874-0.002-1.31-0.007l0.066 0.001c-64.893-0.877-117.267-53.251-118.143-118.061l-0.001-0.083zM512 392.917c-0.013 0-0.028 0-0.043 0-30.445 0-55.125 24.68-55.125 55.125s24.68 55.125 55.125 55.125c30.445 0 55.125-24.68 55.125-55.125v0c-1.457-29.844-25.252-53.683-54.943-55.205l-0.14-0.006zM743.552 298.411c-3.085 3.070-7.34 4.968-12.038 4.968-3.227 0-6.244-0.895-8.817-2.451l0.076 0.043-210.859-124.843-219.477 128c-2.461 1.419-5.412 2.256-8.559 2.256-4.724 0-9.007-1.886-12.138-4.947l0.003 0.003-20.181-20.224c-3.081-3.087-4.985-7.348-4.985-12.055 0-6.316 3.431-11.83 8.53-14.782l0.082-0.044 248.363-141.525c2.437-1.422 5.366-2.261 8.49-2.261 0.015 0 0.031 0 0.046 0h-0.002c3.143 0.027 6.082 0.879 8.617 2.349l-0.084-0.045 239.659 138.624c4.572 2.612 7.782 7.16 8.523 12.497l0.010 0.090c0.095 0.677 0.149 1.459 0.149 2.253 0 4.699-1.899 8.954-4.971 12.041l0.001-0.001zM809.216 641.877l-248.32 141.525c-2.448 1.438-5.392 2.287-8.533 2.287-9.426 0-17.067-7.641-17.067-17.067 0-0.024 0-0.048 0-0.072v0.004-28.885c0.023-6.261 3.413-11.724 8.453-14.676l0.081-0.044 210.944-122.155v-229.845c0-0.004 0-0.009 0-0.013 0-4.709 1.908-8.973 4.992-12.061v0l28.885-28.885c3.088-3.084 7.352-4.992 12.061-4.992 0.005 0 0.009 0 0.014 0h-0.001c0.005 0 0.012 0 0.018 0 2.351 0 4.589 0.486 6.618 1.364l-0.108-0.042c6.232 2.629 10.528 8.683 10.539 15.743v283.009c0 0 0 0 0 0.001 0 6.301-3.415 11.805-8.495 14.761l-0.081 0.044z" />
<glyph unicode="&#xe909;" glyph-name="zjcd_app" d="M795.648 629.504l-268.203 154.795c-4.412 2.619-9.727 4.167-15.403 4.167s-10.99-1.548-15.544-4.245l0.142 0.078-268.203-154.795c-9.258-5.416-15.382-15.303-15.403-26.621v-309.678c0.030-11.319 6.151-21.201 15.257-26.545l0.145-0.079 268.288-154.923c4.396-2.6 9.688-4.137 15.339-4.137s10.943 1.536 15.481 4.214l-0.142-0.078 268.245 154.88c9.222 5.445 15.321 15.318 15.36 26.618v309.681c-0.004 11.327-6.113 21.227-15.216 26.588l-0.144 0.079zM749.483 585.131v-274.219l-237.44-137.088-237.483 137.088v274.219l237.483 137.045zM384.768 553.387c-3.945 2.277-8.677 3.62-13.722 3.62-10.205 0-19.127-5.495-23.967-13.688l-0.071-0.129c-2.302-3.955-3.661-8.705-3.661-13.772 0-10.19 5.496-19.097 13.686-23.918l0.13-0.071 127.019-73.344v-145.067c0-15.317 12.417-27.733 27.733-27.733s27.733 12.417 27.733 27.733v0 144.811l127.531 73.643c8.294 4.908 13.768 13.807 13.768 23.985 0 5.068-1.357 9.818-3.728 13.908l0.071-0.133c-4.858 8.325-13.748 13.83-23.923 13.83-5.096 0-9.869-1.381-13.967-3.789l0.13 0.070-127.275-73.515z" />
<glyph unicode="&#xe90a;" glyph-name="zjcd_statistical" d="M757.589 658.603v-421.248h-482.987v421.248h482.987zM775.68 719.915h-519.125c-23.87 0-43.221-19.351-43.221-43.221v0-457.429c0.024-23.861 19.361-43.197 43.219-43.221h519.128c23.879 0 43.24 19.346 43.264 43.219v457.431c-0.024 23.876-19.385 43.221-43.264 43.221v0zM357.248 329.6v136.32c-0.014 0.341-0.021 0.742-0.021 1.144 0 16.943 13.735 30.677 30.677 30.677s30.677-13.735 30.677-30.677c0-0.402-0.008-0.803-0.023-1.201l0.002 0.057v-136.32c0.014-0.341 0.021-0.742 0.021-1.144 0-16.943-13.735-30.677-30.677-30.677s-30.677 13.735-30.677 30.677c0 0.402 0.008 0.803 0.023 1.201l-0.002-0.057zM613.248 329.6v136.32c-0.014 0.341-0.021 0.742-0.021 1.144 0 16.943 13.735 30.677 30.677 30.677s30.677-13.735 30.677-30.677c0-0.402-0.008-0.803-0.023-1.201l0.002 0.057v-136.32c0.014-0.341 0.021-0.742 0.021-1.144 0-16.943-13.735-30.677-30.677-30.677s-30.677 13.735-30.677 30.677c0 0.402 0.008 0.803 0.023 1.201l-0.002-0.057zM485.248 329.771v205.525c-0.014 0.341-0.021 0.742-0.021 1.144 0 16.943 13.735 30.677 30.677 30.677s30.677-13.735 30.677-30.677c0-0.402-0.008-0.803-0.023-1.201l0.002 0.057v-205.525c0.014-0.341 0.021-0.742 0.021-1.144 0-16.943-13.735-30.677-30.677-30.677s-30.677 13.735-30.677 30.677c0 0.402 0.008 0.803 0.023 1.201l-0.002-0.057z" />
<glyph unicode="&#xe90b;" glyph-name="zjcd_manage" d="M512.341 126.421c-0.062 0-0.135 0-0.208 0-177.556 0-321.493 143.937-321.493 321.493s143.937 321.493 321.493 321.493c177.556 0 321.493-143.937 321.493-321.493 0-28.008-3.582-55.18-10.312-81.083l0.493 2.235c-3.070-13.483-14.956-23.395-29.157-23.395-16.495 0-29.867 13.372-29.867 29.867 0 2.891 0.411 5.687 1.177 8.331l-0.052-0.211c5.080 19.278 7.997 41.41 7.997 64.223 0 137.54-106.028 250.317-240.807 261.052l-0.917 0.059c-6.046 0.497-13.086 0.78-20.193 0.78-144.637 0-261.888-117.251-261.888-261.888s117.251-261.888 261.888-261.888c65.204 0 124.843 23.829 170.682 63.254l-0.345-0.29c5.188 4.453 11.984 7.164 19.413 7.164 16.505 0 29.884-13.38 29.884-29.884 0-9.075-4.045-17.206-10.431-22.686l-0.040-0.034c-55.618-47.918-128.564-77.099-208.325-77.099-0.171 0-0.342 0-0.513 0h0.027zM563.371 474.624h-181.291c-16.495 0-29.867 13.372-29.867 29.867s13.372 29.867 29.867 29.867h181.077c16.495 0 29.867-13.372 29.867-29.867s-13.372-29.867-29.867-29.867v0zM658.987 474.752c-0.263-0.009-0.571-0.014-0.881-0.014-7.867 0-14.969 3.276-20.017 8.538l-0.009 0.010c-2.831 2.654-5.035 5.942-6.387 9.64l-0.055 0.173c-1.591 3.239-2.521 7.050-2.521 11.078 0 0.155 0.001 0.31 0.004 0.465v-0.023c0.011 4.179 0.938 8.138 2.589 11.692l-0.072-0.172c3.197 7.082 8.747 12.632 15.633 15.75l0.196 0.079c3.375 1.617 7.337 2.562 11.52 2.562s8.145-0.945 11.684-2.633l-0.164 0.070c3.866-1.423 7.151-3.624 9.802-6.431l0.011-0.012c2.528-2.682 4.656-5.779 6.265-9.17l0.092-0.216c1.382-3.172 2.187-6.867 2.187-10.751 0-0.271-0.004-0.54-0.012-0.809l0.001 0.039c0.011-0.29 0.018-0.63 0.018-0.972 0-3.815-0.807-7.441-2.261-10.717l0.067 0.169c-1.731-3.757-3.859-6.991-6.394-9.855l0.036 0.042c-5.527-5.282-13.033-8.533-21.299-8.533-0.012 0-0.024 0-0.036 0h0.002zM659.115 326.869h-181.077c-16.495 0-29.867 13.372-29.867 29.867s13.372 29.867 29.867 29.867h181.077c16.495 0 29.867-13.372 29.867-29.867s-13.372-29.867-29.867-29.867v0zM382.080 327.083c-0.001 0-0.003 0-0.004 0-8.14 0-15.52 3.257-20.907 8.538l0.005-0.005c-2.924 2.578-5.138 5.894-6.357 9.659l-0.043 0.154c-1.615 3.21-2.56 6.995-2.56 11.001 0 0.032 0 0.065 0 0.097v-0.005c-0.002 0.118-0.003 0.258-0.003 0.398 0 4.062 0.946 7.903 2.63 11.315l-0.067-0.15c1.245 3.911 3.463 7.218 6.374 9.749l0.026 0.022c5.431 5.338 12.885 8.633 21.108 8.633 4.063 0 7.939-0.805 11.476-2.263l-0.2 0.073c3.866-1.46 7.158-3.655 9.849-6.435l0.007-0.007c2.774-2.67 4.955-5.935 6.34-9.591l0.060-0.18c1.368-3.033 2.164-6.574 2.164-10.302 0-0.443-0.011-0.884-0.034-1.322l0.002 0.061c0.014-0.307 0.022-0.668 0.022-1.030 0-3.645-0.794-7.106-2.218-10.217l0.063 0.153c-1.469-3.842-3.646-7.116-6.395-9.809l-0.005-0.005c-5.383-5.279-12.764-8.536-20.905-8.536-0.15 0-0.301 0.001-0.451 0.003h0.023z" />
<glyph unicode="&#xe90c;" glyph-name="zjcd_org" d="M742.357 368.939h-175.744c-17.964 0-32.53-14.551-32.555-32.51v-57.858h-96.427v171.392h96.427c17.979 0 32.555 14.575 32.555 32.555v0 252.843c0 17.979-14.575 32.555-32.555 32.555v0h-252.501c-17.979 0-32.555-14.575-32.555-32.555v0-252.8c0-17.979 14.575-32.555 32.555-32.555v0h96.427v-201.429c0-16.495 13.372-29.867 29.867-29.867v0h126.464v-57.899c0-17.979 14.575-32.555 32.555-32.555v0h175.488c17.979 0 32.555 14.575 32.555 32.555v0 175.787c-0.121 17.887-14.65 32.341-32.554 32.341 0 0-0.001 0-0.001 0v0zM308.779 707.84h197.76v-197.76h-197.76zM714.837 188.203h-120.661v120.661h120.661z" />
<glyph unicode="&#xe90d;" glyph-name="zjcd_role" d="M538.709 438.955c90.486 0 163.84 73.354 163.84 163.84s-73.354 163.84-163.84 163.84c-90.471 0-163.816-73.329-163.84-163.795v-0.002c0-0.013 0-0.028 0-0.043 0-90.486 73.354-163.84 163.84-163.84v0zM426.581 602.837c0.049 61.89 50.231 112.043 112.128 112.043 61.927 0 112.128-50.201 112.128-112.128s-50.201-112.128-112.128-112.128v0c-61.927 0-112.128 50.201-112.128 112.128 0 0.030 0 0.060 0 0.090v-0.005zM524.544 397.611h-102.4c-0.262 0.001-0.572 0.002-0.882 0.002-105.143 0-195.127-64.901-232.078-156.826l-0.597-1.682-15.957-40.235c-1.259-3.064-1.99-6.621-1.99-10.349 0-11.686 7.184-21.695 17.377-25.85l0.187-0.067c2.979-1.295 6.45-2.049 10.096-2.049 0.081 0 0.161 0 0.241 0.001h-0.012c0.022 0 0.047 0 0.073 0 11.701 0 21.717 7.213 25.845 17.434l0.067 0.187 16 40.277c29.121 72.81 99.069 123.308 180.811 123.308 0.259 0 0.517-0.001 0.776-0.002h102.36c14.958 0.603 26.855 12.875 26.855 27.925s-11.897 27.322-26.8 27.924l-0.054 0.002zM826.667 377.301l-74.283 42.88c-9.173 5.415-20.213 8.614-32 8.614s-22.827-3.199-32.298-8.777l0.298 0.162-74.283-42.88c-19.241-11.277-31.957-31.854-31.957-55.401 0-0.023 0-0.046 0-0.069v0.004-85.803c0-0.019 0-0.043 0-0.066 0-23.547 12.716-44.124 31.656-55.238l0.301-0.163 74.283-42.88c9.173-5.415 20.213-8.614 32-8.614s22.827 3.199 32.298 8.777l-0.298-0.162 74.283 42.88c19.241 11.277 31.957 31.854 31.957 55.401 0 0.023 0 0.046 0 0.069v-0.004 85.803c0 0.019 0 0.043 0 0.066 0 23.547-12.716 44.124-31.656 55.238l-0.301 0.163zM811.691 236.16c-0.055-6.228-3.437-11.653-8.453-14.591l-0.081-0.044-74.283-42.923c-2.448-1.437-5.391-2.286-8.533-2.286s-6.085 0.849-8.614 2.33l0.081-0.044-74.283 42.923c-5.096 2.982-8.478 8.407-8.533 14.627v85.811c0.039 6.244 3.425 11.689 8.453 14.634l0.081 0.044 74.283 42.667c2.439 1.471 5.385 2.341 8.533 2.341s6.094-0.87 8.609-2.383l-0.075 0.042 74.283-42.667c5.108-2.989 8.494-8.433 8.533-14.672v-0.006zM741.76 299.947c-2.646 2.842-5.937 5.048-9.642 6.389l-0.171 0.054c-3.376 1.615-7.338 2.558-11.52 2.558s-8.144-0.943-11.685-2.628l0.165 0.071c-3.732-1.402-6.883-3.607-9.365-6.418l-0.022-0.025c-2.831-2.483-5.025-5.624-6.349-9.187l-0.051-0.157c-1.587-3.393-2.527-7.364-2.56-11.551v-0.012c-0.002-0.116-0.003-0.253-0.003-0.391 0-4.035 0.946-7.85 2.629-11.233l-0.066 0.147c1.38-3.889 3.572-7.194 6.387-9.844l0.013-0.012c2.687-2.518 5.783-4.645 9.168-6.263l0.219-0.094c3.418-1.28 7.366-2.056 11.486-2.133l0.034-0.001c0.030 0 0.066 0 0.102 0 8.244 0 15.729 3.252 21.241 8.544l-0.010-0.010c2.525 2.831 4.668 6.080 6.299 9.613l0.101 0.243c1.387 3.091 2.194 6.699 2.194 10.496 0 0.345-0.007 0.689-0.020 1.031l0.002-0.049c0.007 0.227 0.010 0.493 0.010 0.761 0 3.901-0.804 7.614-2.256 10.982l0.069-0.18c-1.718 3.576-3.859 6.644-6.413 9.315l0.013-0.013z" />
<glyph unicode="&#xe90e;" glyph-name="zjcd_manages" d="M601.344 136.704c-16.17 0.024-29.269 13.138-29.269 29.312 0 0 0 0 0 0v0 564.011c0 0.006 0 0.012 0 0.019 0 16.165 13.104 29.269 29.269 29.269 8.969 0 16.995-4.034 22.364-10.386l0.036-0.043 83.115-98.816c4.639-5.164 7.476-12.028 7.476-19.555 0-16.189-13.123-29.312-29.312-29.312-9.302 0-17.591 4.332-22.961 11.090l-0.046 0.060-31.36 37.291v-483.627c-0.024-16.179-13.133-29.288-29.31-29.312h-0.002zM432.085 321.621v-155.605c0-16.177 13.114-29.291 29.291-29.291s29.291 13.114 29.291 29.291v0 155.605zM823.168 416.725c-4.242 11.326-14.976 19.243-27.558 19.243-0.002 0-0.003 0-0.005 0h-450.688c-48.146 0.049-87.162 39.065-87.211 87.206v7.728c0 48.153 39.036 87.189 87.189 87.189s87.189-39.036 87.189-87.189v0-38.4h58.581v38.4c0.014 0.742 0.021 1.617 0.021 2.494 0 80.519-65.273 145.792-145.792 145.792s-145.792-65.273-145.792-145.792c0-0.877 0.008-1.752 0.023-2.625l-0.002 0.131v-7.723c0.097-80.495 65.337-145.719 145.828-145.792h370.61l-26.24-22.187c-6.626-5.417-10.822-13.591-10.822-22.745 0-16.189 13.123-29.312 29.312-29.312 7.433 0 14.22 2.767 19.387 7.327l87.349 73.786c6.385 5.404 10.411 13.424 10.411 22.384 0 3.62-0.657 7.087-1.859 10.287l0.066-0.202z" />
<glyph unicode="&#xe90f;" glyph-name="zjcd_order" d="M609.877 145.621h-274.219c-49.748 0.049-90.063 40.364-90.112 90.107v424.581c0.049 49.748 40.364 90.063 90.107 90.112h352.602c49.766-0.024 90.106-40.349 90.155-90.107v-346.117c-0.097-93.048-75.489-168.455-168.522-168.576h-0.012zM335.659 699.264c-21.495-0.048-38.906-17.46-38.955-38.95v-424.581c0.048-21.495 17.46-38.906 38.95-38.955h274.224c64.786 0.097 117.279 52.59 117.376 117.367v346.164c-0.049 21.51-17.484 38.93-38.995 38.955h-0.002zM632.277 501.931h-240.64c-14.138 0-25.6 11.462-25.6 25.6s11.462 25.6 25.6 25.6h240.64c14.138 0 25.6-11.462 25.6-25.6s-11.462-25.6-25.6-25.6v0zM632.277 342.827h-240.64c-14.138 0-25.6 11.462-25.6 25.6s11.462 25.6 25.6 25.6h240.64c14.138 0 25.6-11.462 25.6-25.6s-11.462-25.6-25.6-25.6v0z" />
<glyph unicode="&#xe910;" glyph-name="zjcd_recode" d="M620.331 145.621h-274.219c-49.733 0.048-90.039 40.34-90.112 90.062v424.583c0.048 49.756 40.359 90.082 90.105 90.155h352.604c49.772-0.049 90.106-40.383 90.155-90.15v-346.117c-0.097-93.039-75.494-168.436-168.524-168.533h-0.010zM346.112 699.221c-21.495-0.048-38.906-17.46-38.955-38.95v-424.581c0.048-21.486 17.465-38.888 38.952-38.912h274.221c64.786 0.097 117.279 52.59 117.376 117.367v346.121c-0.049 21.51-17.484 38.93-38.995 38.955h-0.002zM522.667 276.907c-0.073 0-0.159 0-0.246 0-55.764 0-104.677 29.333-132.151 73.412l-0.382 0.658c-10.454 16.597-17.953 36.136-21.222 57.077l-0.111 0.865c-0.229 1.175-0.361 2.525-0.361 3.906 0 11.782 9.551 21.333 21.333 21.333 10.888 0 19.871-8.157 21.172-18.693l0.010-0.104c8.512-54.627 55.221-95.938 111.578-95.938 62.327 0 112.853 50.526 112.853 112.853s-50.526 112.853-112.853 112.853c-21.834 0-42.22-6.201-59.493-16.937l0.48 0.278c-3.209-2.035-7.117-3.243-11.307-3.243-11.782 0-21.333 9.551-21.333 21.333 0 2.698 0.501 5.279 1.415 7.655l-0.049-0.146 18.475 51.2c3.057 8.288 10.888 14.092 20.075 14.092 11.788 0 21.345-9.556 21.345-21.345 0-2.602-0.466-5.095-1.318-7.401l0.048 0.148-2.304-6.443c10.151 2.405 21.807 3.784 33.784 3.784 12.892 0 25.412-1.598 37.371-4.606l-1.054 0.224c69.018-16.839 119.445-78.136 119.445-151.211 0-85.792-69.505-155.349-155.277-155.435h-0.008zM545.92 394.965h-45.611c-11.782 0-21.333 9.551-21.333 21.333v0 50.432c0 11.782 9.551 21.333 21.333 21.333s21.333-9.551 21.333-21.333v0-29.099h24.277c11.782 0 21.333-9.551 21.333-21.333s-9.551-21.333-21.333-21.333v0z" />
<glyph unicode="&#xe911;" glyph-name="zjcd_monitor" d="M512 239.403c-144.689 0.024-261.973 117.324-261.973 262.016 0 144.707 117.309 262.016 262.016 262.016 144.692 0 261.991-117.284 262.016-261.971v-0.003c-0.194-144.653-117.406-261.865-262.040-262.059h-0.019zM512 698.795c-108.966-0.024-197.291-88.364-197.291-197.333 0-108.984 88.349-197.333 197.333-197.333s197.333 88.349 197.333 197.333v0c-0.121 108.951-88.422 197.236-197.367 197.333h-0.009zM512 446.251c-27.617 0-50.005 22.388-50.005 50.005s22.388 50.005 50.005 50.005c27.617 0 50.005-22.388 50.005-50.005v0c-0.048-27.598-22.408-49.957-50.001-50.005h-0.005zM679.083 132.565h-334.165c-17.862 0-32.341 14.48-32.341 32.341s14.48 32.341 32.341 32.341v0h334.165c17.862 0 32.341-14.48 32.341-32.341s-14.48-32.341-32.341-32.341v0z" />
<glyph unicode="&#xe912;" glyph-name="zjcd_employee" d="M512 435.84c90.486 0 163.84 73.354 163.84 163.84s-73.354 163.84-163.84 163.84c-90.471 0-163.816-73.329-163.84-163.795v-0.002c0-0.013 0-0.028 0-0.043 0-90.486 73.354-163.84 163.84-163.84v0zM399.872 599.723c0.049 61.89 50.231 112.043 112.128 112.043 61.927 0 112.128-50.201 112.128-112.128s-50.201-112.128-112.128-112.128v0c-61.927 0-112.128 50.201-112.128 112.128 0 0.030 0 0.060 0 0.090v-0.005zM866.859 195.755l-15.957 40.235c-37.535 93.606-127.511 158.508-232.646 158.508-0.32 0-0.641-0.001-0.961-0.002h-210.681c-0.262 0.001-0.572 0.002-0.882 0.002-105.143 0-195.127-64.901-232.078-156.826l-0.597-1.682-15.957-40.235c-1.24-3.048-1.959-6.583-1.959-10.287 0-11.706 7.186-21.734 17.388-25.912l0.187-0.068c3.035-1.295 6.567-2.048 10.274-2.048 0.018 0 0.036 0 0.054 0h-0.003c0.039 0 0.085 0 0.131 0 11.685 0 21.685 7.216 25.787 17.435l0.066 0.187 16 40.277c29.134 72.811 99.090 123.308 180.84 123.308 0.249 0 0.497 0 0.745-0.001h210.692c0.218 0.001 0.477 0.001 0.736 0.001 81.742 0 151.69-50.498 180.348-122l0.463-1.308 16-40.277c4.195-10.409 14.211-17.621 25.911-17.621 0.026 0 0.051 0 0.077 0h-0.004c0.023 0 0.050 0 0.077 0 3.699 0 7.221 0.753 10.423 2.114l-0.174-0.066c10.438 4.195 17.674 14.233 17.674 25.961 0 3.711-0.725 7.253-2.040 10.492l0.067-0.187zM511.915 132.48c-3.761 0.011-7.159 1.56-9.598 4.051l-0.002 0.002-39.211 39.168c-2.453 2.461-3.969 5.857-3.969 9.607 0 1.571 0.266 3.079 0.756 4.483l-0.029-0.096 39.168 117.632c1.847 5.499 6.955 9.39 12.971 9.39s11.123-3.891 12.943-9.294l0.028-0.096 39.211-117.632c0.435-1.283 0.685-2.762 0.685-4.299 0-3.778-1.516-7.203-3.972-9.698l0.002 0.002-39.211-39.168c-2.496-2.504-5.948-4.053-9.762-4.053-0.003 0-0.006 0-0.009 0v0z" />
<glyph unicode="&#xe913;" glyph-name="zjcd_benefit" d="M699.008 530.048c-0.013 0-0.028 0-0.043 0-50.357 0-91.179 40.822-91.179 91.179s40.822 91.179 91.179 91.179c50.357 0 91.179-40.822 91.179-91.179v0c-0.048-50.322-40.817-91.106-91.129-91.179h-0.007zM699.008 666.027c-24.711-0.073-44.715-20.122-44.715-44.842 0-24.766 20.077-44.843 44.843-44.843 24.751 0 44.818 20.052 44.843 44.798v0.002c0 0.013 0 0.028 0 0.043 0 24.789-20.096 44.885-44.885 44.885-0.030 0-0.060 0-0.090 0h0.005zM571.691 273.28c-49.956 0-90.453 40.497-90.453 90.453s40.497 90.453 90.453 90.453c49.956 0 90.453-40.497 90.453-90.453v0c-0.073-49.927-40.527-90.381-90.446-90.453h-0.007zM571.691 407.808c-24.323-0.024-44.032-19.748-44.032-44.075 0-24.342 19.733-44.075 44.075-44.075s44.075 19.733 44.075 44.075v0c-0.049 24.337-19.777 44.050-44.115 44.075h-0.002zM362.283 382.72c-35.346 0-64 28.654-64 64s28.654 64 64 64c35.346 0 64-28.654 64-64v0c-0.145-35.288-28.712-63.855-63.986-64h-0.014zM362.283 464.683c-9.826 0-17.792-7.966-17.792-17.792s7.966-17.792 17.792-17.792c9.826 0 17.792 7.966 17.792 17.792v0c-0.024 9.816-7.976 17.768-17.79 17.792h-0.002zM598.869 407.723c-12.776 0.118-23.087 10.503-23.087 23.295 0 3.879 0.948 7.537 2.625 10.754l-0.061-0.129 65.323 126.080c3.767 8.032 11.785 13.495 21.079 13.495 12.819 0 23.211-10.392 23.211-23.211 0-4.278-1.157-8.285-3.176-11.727l0.059 0.109-65.493-126.123c-3.904-7.49-11.602-12.522-20.477-12.544h-0.003zM487.765 349.44c-1.439-0.319-3.092-0.502-4.788-0.502-4.376 0-8.468 1.218-11.955 3.333l0.103-0.058-79.744 47.787c-6.797 4.121-11.27 11.48-11.27 19.883 0 12.799 10.375 23.174 23.174 23.174 4.396 0 8.505-1.224 12.007-3.349l-0.103 0.058 79.744-47.744c6.873-4.103 11.404-11.502 11.404-19.959 0-11.169-7.903-20.491-18.422-22.681l-0.15-0.026zM727.339 183.595h-442.027c-28.427 0-51.474 23.032-51.499 51.454v423.554c0.024 28.432 23.067 51.474 51.496 51.499h282.84c12.795 0 23.168-10.373 23.168-23.168s-10.373-23.168-23.168-23.168h-282.837c0 0 0 0 0 0-2.828 0-5.12-2.292-5.12-5.12 0-0.015 0-0.030 0-0.045v0.002-423.552c0 0 0 0 0 0 0-2.804 2.273-5.077 5.077-5.077 0.015 0 0.030 0 0.045 0h442.025c0 0 0 0 0 0 2.813 0 5.096 2.268 5.12 5.075v224.215c0 12.795 10.373 23.168 23.168 23.168s23.168-10.373 23.168-23.168v-224.171c0-28.427-23.032-51.474-51.454-51.499h-0.002z" />
<glyph unicode="&#xe914;" glyph-name="zjcd_dispatch" d="M677.632 619.349l17.664 2.005-136.789-172.715-97.323 77.099c-4.724 3.791-10.79 6.084-17.393 6.084-1.163 0-2.31-0.071-3.435-0.209l0.135 0.014c-7.673-0.932-14.297-4.806-18.815-10.44l-0.043-0.056-68.48-86.528c-3.784-4.754-6.072-10.846-6.072-17.472 0-15.56 12.614-28.173 28.173-28.173 8.933 0 16.896 4.158 22.057 10.644l0.044 0.057 50.987 64.427 97.323-77.056c4.755-3.766 10.841-6.041 17.458-6.041 8.92 0 16.875 4.135 22.051 10.593l0.043 0.056 151.296 191.061 2.005-17.621c1.7-14.067 13.561-24.864 27.946-24.875h0.001c0.491-0.034 1.065-0.053 1.643-0.053s1.151 0.019 1.72 0.058l-0.077-0.004c14.103 1.673 24.936 13.559 24.936 27.975 0 1.148-0.069 2.28-0.202 3.391l0.013-0.134-10.283 88.448c-1.692 14.083-13.569 24.894-27.97 24.894-1.15 0-2.283-0.069-3.396-0.203l0.134 0.013-81.835-9.472c-14.647-1.099-26.115-13.253-26.115-28.086 0-15.552 12.608-28.16 28.16-28.16 1.568 0 3.106 0.128 4.604 0.374l-0.163-0.022zM787.2 476.16c-15.534-0.024-28.117-12.623-28.117-28.16 0 0 0 0 0 0v0c-0.152-136.227-110.621-246.602-246.869-246.602-136.342 0-246.869 110.527-246.869 246.869s110.527 246.869 246.869 246.869c21.723 0 42.791-2.806 62.861-8.075l-1.72 0.384c2.094-0.557 4.497-0.878 6.976-0.878 15.554 0 28.163 12.609 28.163 28.163 0 13.075-8.911 24.070-20.991 27.242l-0.196 0.044c-22.627 6.044-48.604 9.515-75.392 9.515-167.588 0-303.445-135.857-303.445-303.445s135.857-303.445 303.445-303.445c167.573 0 303.421 135.833 303.445 303.4v0.002c-0.024 15.534-12.623 28.117-28.16 28.117 0 0 0 0 0 0v0z" />
<glyph unicode="&#xe915;" glyph-name="zjcd_weight" d="M428.075 309.248c0-14.251 8.533-25.6 19.413-25.6h169.344c10.709 0 19.413 11.563 19.413 25.6s-8.533 25.856-19.413 25.856h-169.344c-10.667 0-19.413-11.563-19.413-25.856zM784.768 379.477c-2.182 0.663-4.69 1.045-7.287 1.045-10.926 0-20.274-6.754-24.097-16.315l-0.062-0.175c-38.090-93.456-128.187-158.155-233.412-158.293h-0.017c-3.157 0-6.272 0-9.515 0-133.7 5.792-239.899 115.589-239.899 250.19 0 103.408 62.681 192.177 152.121 230.384l1.634 0.621c9.334 3.959 15.761 13.046 15.761 23.634 0 10.293-6.075 19.168-14.835 23.234l-0.158 0.066c-3.251 1.553-7.065 2.459-11.092 2.459-3.537 0-6.91-0.7-9.99-1.968l0.174 0.064c-109.931-46.663-185.63-153.701-185.63-278.419 0-163.78 130.542-297.070 293.252-301.497l0.41-0.009c2.517 0 5.077 0 7.637 0 126.895 0.168 235.546 78.102 280.865 188.694l0.735 2.026c1.173 2.831 1.854 6.118 1.854 9.564 0 11.575-7.683 21.357-18.227 24.522l-0.181 0.047zM805.291 491.093c-9.823 133.085-114.672 238.831-246.472 250.001l-0.995 0.068v0.256h-5.248c-23.489-2.063-41.775-21.64-41.775-45.488 0-0.208 0.001-0.416 0.004-0.623v0.031-203.349c-0.014-0.412-0.022-0.896-0.022-1.382 0-23.891 19.027-43.338 42.754-44.014l0.062-0.001h2.517c0.749-0.255 1.612-0.41 2.509-0.427h202.035c0.127-0.001 0.278-0.002 0.429-0.002 12.445 0 23.706 5.075 31.824 13.268l0.003 0.003c7.383 7.414 11.947 17.639 11.947 28.93 0 0.014 0 0.028 0 0.042v-0.002h0.597zM757.973 493.355h-200.235v200.533c105.602-11.651 188.632-94.74 200.102-199.355l0.090-1.008z" />
<glyph unicode="&#xe916;" glyph-name="zjcd_appMine" d="M512 420.693c-91.104 0.024-164.949 73.884-164.949 164.992 0 91.123 73.869 164.992 164.992 164.992 91.108 0 164.968-73.845 164.992-164.947v-0.002c-0.121-91.097-73.937-164.913-165.023-165.035h-0.012zM512 699.563c-62.893 0-113.877-50.985-113.877-113.877s50.985-113.877 113.877-113.877c62.893 0 113.877 50.985 113.877 113.877 0 0.015 0 0.030 0 0.045v-0.002c-0.073 62.855-51.019 113.786-113.873 113.835h-0.005zM815.061 145.28h-606.251c-14.138 0-25.6 11.462-25.6 25.6v0 53.461c0 101.326 82.141 183.467 183.467 183.467v0h290.603c101.326 0 183.467-82.141 183.467-183.467v0-53.461c0 0 0 0 0 0 0-14.138-11.462-25.6-25.6-25.6-0.030 0-0.060 0-0.090 0h0.005zM234.496 196.48h555.008v27.861c0 73.049-59.218 132.267-132.267 132.267v0h-290.56c-73.049 0-132.267-59.218-132.267-132.267v0z" />
<glyph unicode="&#xe917;" glyph-name="zjcd_transport" d="M725.376 538.283h-10.411l-53.803 118.229c-4.752 10.157-14.885 17.067-26.632 17.067-0.027 0-0.055 0-0.082 0h-93.863c-3.146 34.615-32.028 61.525-67.195 61.525-0.047 0-0.094 0-0.141 0h-168.953c-62.61 0-113.365-50.755-113.365-113.365v0-169.387c0-16.165 13.104-29.269 29.269-29.269s29.269 13.104 29.269 29.269v0 169.557c0 30.28 24.547 54.827 54.827 54.827 0.015 0 0.030 0 0.045 0h168.958c0 0 0 0 0 0 5.113 0 9.259-4.145 9.259-9.259 0-0.015 0-0.030 0-0.045v0.002-23.083c0-16.094 13.047-29.141 29.141-29.141v0h104.064l54.613-119.808h0.384c2.127-3.873 4.999-7.085 8.447-9.542l0.086-0.058c0.849-0.685 1.797-1.334 2.795-1.906l0.106-0.056c4.004-2.409 8.819-3.871 13.967-3.968h29.254c27.169 0 49.195-22.025 49.195-49.195v0-91.051c0-27.169-22.025-49.195-49.195-49.195v0h-422.4c-29.858 1.471-53.509 26.038-53.509 56.128 0 0.263 0.002 0.525 0.005 0.786v-0.040c-1.193 15.178-13.803 27.043-29.185 27.043-16.102 0-29.168-13.003-29.269-29.081v-0.010c0.083-61.822 49.584-112.055 111.114-113.321l0.118-0.002c6.742-40.484 41.507-70.965 83.392-70.965s76.65 30.481 83.324 70.472l0.068 0.494h64.725c6.742-40.484 41.507-70.965 83.392-70.965s76.65 30.481 83.324 70.472l0.068 0.494h24.96c59.499 0 107.733 48.234 107.733 107.733v0 91.051c-0.097 59.426-48.294 107.563-107.733 107.563-0.060 0-0.12 0-0.18 0h0.009zM385.493 219.392c-0.042 0-0.091 0-0.14 0-9.252 0-17.357 4.908-21.855 12.262l-0.064 0.112h44.075c-4.562-7.466-12.667-12.374-21.918-12.374-0.034 0-0.069 0-0.103 0h0.005zM617.003 219.392c-0.042 0-0.091 0-0.14 0-9.252 0-17.357 4.908-21.855 12.262l-0.064 0.112h44.075c-4.562-7.466-12.667-12.374-21.918-12.374-0.034 0-0.069 0-0.103 0h0.005zM349.611 420.608c0.024-16.155 13.114-29.245 29.267-29.269h202.285c0.153-0.003 0.334-0.005 0.516-0.005 6.993 0 13.348 2.731 18.057 7.185l-0.012-0.012c0.817 0.476 1.5 0.927 2.156 1.411l-0.066-0.046c0.683 0.683 0.896 1.579 1.493 2.261 1.882 2.071 3.481 4.447 4.704 7.036l0.074 0.175c1.417 3.315 2.24 7.172 2.24 11.221s-0.824 7.906-2.312 11.413l0.072-0.191c-1.436 3.153-3.268 5.859-5.476 8.208l0.015-0.016c-0.341 0.384-0.469 0.896-0.853 1.28l-67.243 67.243c-5.208 4.845-12.214 7.819-19.914 7.819-16.165 0-29.269-13.104-29.269-29.269 0-7.711 2.982-14.725 7.855-19.953l-0.016 0.017 17.067-17.067h-131.627c-16.060-0.169-29.014-13.227-29.014-29.31 0-0.046 0-0.091 0-0.137v0.007z" />
<glyph unicode="&#xe918;" glyph-name="zjcd_appstore" d="M897.963 586.069l-0.427 1.621-0.299 1.237c-0.083 0.775-0.294 1.482-0.614 2.127l0.016-0.037-71.595 175.787c-9.596 29.837-36.924 51.125-69.285 51.541l-488.070 0.341c-31.375-0.217-57.859-20.914-66.767-49.378l-0.135-0.499-73.643-178.944-0.256-1.109c-0.151-0.751-0.244-1.619-0.256-2.507v-0.479c-4.088-12.667-6.445-27.241-6.445-42.365 0-0.286 0.001-0.572 0.003-0.858v0.044c-0.003-0.317-0.004-0.693-0.004-1.068 0-51.132 27.481-95.846 68.479-120.178l0.645-0.354 3.968-2.304c-0.020-0.268-0.031-0.581-0.031-0.896s0.011-0.628 0.033-0.938l-0.002 0.042v-284.971c0.546-30.354 25.281-54.752 55.714-54.752 1.58 0 3.144 0.066 4.691 0.195l-0.202-0.014h519.851c1.206-0.092 2.611-0.145 4.029-0.145 30.53 0 55.373 24.347 56.172 54.684l0.002 0.074v196.651c0.033 0.549 0.052 1.192 0.052 1.839 0 17.661-14.176 32.012-31.77 32.294h-0.027c-16.684-0.423-30.048-14.049-30.048-30.796 0-1.176 0.066-2.336 0.194-3.477l-0.013 0.14v-194.176h-520.064v270.251h1.408c49.671 3.141 93.748 24.807 125.854 58.097l0.055 0.058 3.115 4.267 3.371-4.267c33.233-31.692 77.651-51.913 126.757-54.171l0.433-0.016c49.143 0.522 93.323 21.337 124.638 54.447l0.076 0.081 3.072 4.267 3.157-4.267c32.698-33.177 77.078-54.762 126.463-58.080l0.598-0.032c0.836-0.020 1.821-0.031 2.808-0.031 22.273 0 43.198 5.767 61.365 15.89l-0.642-0.329c41.659 24.536 69.173 69.163 69.173 120.217 0 0.591-0.004 1.182-0.011 1.771l0.001-0.090c0.144 2.166 0.226 4.697 0.226 7.246 0 12.986-2.128 25.475-6.055 37.137l0.24-0.82zM661.547 523.563c-4.888 6.286-12.349 10.372-20.775 10.665l-0.047 0.001c-8.467-0.368-15.917-4.432-20.82-10.609l-0.044-0.058c-1.839-2.225-3.486-4.73-4.843-7.407l-0.106-0.231c-0.296-0.61-0.58-1.113-0.89-1.598l0.037 0.062-0.256-0.512v-0.811c-24.203-30.204-59.919-50.315-100.391-53.641l-0.516-0.034c-41.914 3.865-78.435 24.227-103.477 54.446l-0.203 0.252-0.299 0.896-0.299 0.341c-1.793 3.451-3.999 6.407-6.607 8.953l-0.007 0.007c-4.563 6.411-11.784 10.675-20.022 11.175l-0.074 0.004c-7.762-0.237-14.625-3.895-19.162-9.509l-0.038-0.049c-2.72-3.253-5.098-6.941-6.99-10.907l-0.135-0.315-0.341-0.683c-22.615-29.478-56.976-48.97-95.961-51.437l-0.38-0.019c-0.76-0.024-1.654-0.038-2.552-0.038-14.232 0-27.647 3.502-39.428 9.69l0.466-0.223-1.536 0.725c-25.61 12.264-42.983 37.977-42.983 67.747 0 2.421 0.115 4.816 0.34 7.179l-0.023-0.301c-0.001 0.172-0.002 0.375-0.002 0.578 0 11.161 1.907 21.876 5.413 31.837l-0.206-0.672c0.26 0.55 0.416 1.194 0.427 1.874v0.004l66.816 160.853c4.267 13.099 8.533 18.944 22.784 18.944h483.84c6.059-0.341 15.275-0.811 21.76-19.968l71.552-162.133c0.009-0.565 0.086-1.107 0.224-1.625l-0.011 0.047c0.034-0.128 0.054-0.275 0.054-0.427s-0.020-0.299-0.057-0.439l0.003 0.012v-0.683c3.131-9.36 4.995-20.142 5.119-31.342l0.001-0.061c0.644-3.555 1.012-7.646 1.012-11.823 0-26.578-14.909-49.674-36.82-61.381l-0.374-0.182c-12.231-6.671-26.789-10.594-42.264-10.594-0.532 0-1.062 0.005-1.592 0.014l0.080-0.001c-41.836 2.504-78.584 22.382-103.441 52.449l-0.196 0.244v0.341c-1.321 3.992-3.284 7.443-5.798 10.414l0.038-0.046z" />
</font>
</defs>
</svg>
