<?xml version="1.0" encoding="utf-8"?>
<!-- Generator: Adobe Illustrator 25.1.0, SVG Export Plug-In . SVG Version: 6.00 Build 0)  -->
<svg version="1.1" id="图层_1" xmlns="http://www.w3.org/2000/svg" xmlns:xlink="http://www.w3.org/1999/xlink" x="0px" y="0px"
	 viewBox="0 0 708.32 777.73" style="enable-background:new 0 0 708.32 777.73;" xml:space="preserve">
<style type="text/css">
	.st0{opacity:0;fill:#B7B7B7;}
	.st1{fill:#FFFFFF;}
	.st2{fill:none;}
</style>
<g id="图层_2">
	<rect x="0.86" y="0.24" class="st0" width="437.94" height="437.94"/>
	<g>
		<path class="st1" d="M70.72,238.05l0.78,92.3l31.42,17.14l0.58,142.78l-32.78-18.36v88.31l277.14,161.41V398.69L70.72,238.05z
			 M271.67,587.74l-90.78-52.48v-144l90.78,52.92V587.74z"/>
		<path class="st1" d="M77.42,219.96l76.38,46.26l33.99-19.89l120.34,70.88l-32.64,18.61l77.93,45.56l278.01-162.65l-277-160.2
			L77.42,219.96z M478.38,221.16l-89.51,52.97L265.5,202.12l89.89-52.74L478.38,221.16z"/>
		<path class="st1" d="M368.82,398.69v322.94l277.14-161.41v-88.31L445.01,587.74V444.18l200.17-113.83l0.78-92.3L368.82,398.69z
			 M445.01,587.74V444.18"/>
	</g>
</g>
<polygon class="st2" points="142.41,691.34 182.33,714.61 182.33,777.73 142.41,754.66 "/>
</svg>
